<svg id="Layer_1" data-name="Layer 1" xmlns="http://www.w3.org/2000/svg" viewBox="0 0 102.27 150.9"><defs><style>.cls-1{fill:none;}.cls-2{fill:#050505;}</style></defs><path class="cls-1" d="M254.66,323.83q0,24.81,0,49.6l-.07,49.44q0,22.23-.07,44.45c0,2.89.74,3.63,3.67,3.64l94.93.14c2.83,0,3.6-.75,3.6-3.56l.07-46.5c0-2.83-.73-3.56-3.57-3.57L310,417.41h-1.82l.07-49.5q0-22,.1-44a3.85,3.85,0,0,0-1.72-3.61l-50.35-.07A3.86,3.86,0,0,0,254.66,323.83Zm5,142,.07-43.3,43.15.07-.07,43.3Zm91.79-43.17-.07,43.27-43.18-.07.07-43.27ZM303,374,303,417.23l-43.16-.07.06-43.19Zm.08-48.57L303,368.72l-43.21-.07.07-43.25Z" transform="translate(-254.47 -320.21)"/><path class="cls-2" d="M302.86,465.87l-43.14-.07.06-43.3,43.15.07Z" transform="translate(-254.47 -320.21)"/><path class="cls-2" d="M259.85,377,303,377l-.07,43.19-43.15-.06Z" transform="translate(-254.47 -320.21)"/><path class="cls-2" d="M259.8,374.65l.07-43.25,43.21.06L303,374.72Z" transform="translate(-254.47 -320.21)"/><path class="cls-2" d="M305.26,465.83l.06-43.27,43.18.07-.07,43.27Z" transform="translate(-254.47 -320.21)"/></svg>