<svg id="Layer_1" data-name="Layer 1" xmlns="http://www.w3.org/2000/svg" viewBox="0 0 1939 768"><defs><style>.cls-1{fill:#0341ae;}</style></defs><rect x="344.83" y="6.08" width="126.26" height="126.8" transform="translate(337.74 477.32) rotate(-89.9)"/><rect x="210.45" y="6.93" width="126.32" height="125.61" transform="translate(203.37 343.22) rotate(-89.9)"/><rect x="74.97" y="5.86" width="126.97" height="125.91" transform="translate(69.39 207.14) rotate(-89.9)"/><rect x="75" y="139.8" width="126.32" height="125.61" transform="translate(-64.7 340.4) rotate(-89.9)"/><rect class="cls-1" x="344.83" y="6.08" width="126.26" height="126.8" transform="translate(337.74 477.32) rotate(-89.9)"/><rect class="cls-1" x="210.45" y="6.93" width="126.32" height="125.61" transform="translate(203.37 343.22) rotate(-89.9)"/><rect class="cls-1" x="74.97" y="5.86" width="126.97" height="125.91" transform="translate(69.39 207.14) rotate(-89.9)"/><rect class="cls-1" x="75" y="139.8" width="126.32" height="125.61" transform="translate(-64.7 340.4) rotate(-89.9)"/><rect x="1723.63" y="329.24" width="125.71" height="126.24" transform="translate(-4.85 22.77) rotate(-0.73)"/><rect x="1724.8" y="463.59" width="125.77" height="125.07" transform="translate(-6.55 22.8) rotate(-0.73)"/><rect x="1726.87" y="597.99" width="126.42" height="125.36" transform="translate(-8.26 22.84) rotate(-0.73)"/><rect x="1593.99" y="599.88" width="125.77" height="125.07" transform="translate(-8.3 21.14) rotate(-0.73)"/><rect class="cls-1" x="1723.63" y="329.24" width="125.71" height="126.24" transform="translate(-4.85 22.77) rotate(-0.73)"/><rect class="cls-1" x="1724.8" y="463.59" width="125.77" height="125.07" transform="translate(-6.55 22.8) rotate(-0.73)"/><rect class="cls-1" x="1726.87" y="597.99" width="126.42" height="125.36" transform="translate(-8.26 22.84) rotate(-0.73)"/><rect class="cls-1" x="1593.99" y="599.88" width="125.77" height="125.07" transform="translate(-8.3 21.14) rotate(-0.73)"/></svg>